<svg width="620" height="614" viewBox="0 0 620 614" fill="none" xmlns="http://www.w3.org/2000/svg">
<path d="M342.16 575.118L302.302 607.461L302.939 567.478L303.002 563.47L299.375 565.175L207.986 608.148L207.326 566.676L207.277 563.59L204.268 564.279L7.85929 609.302L133.806 468.925L136.522 465.897L132.594 464.841L53.054 443.457L122.365 392.296L124.969 390.374L122.452 388.34L61.4418 339.05L123.56 303.701L126.31 302.136L124.152 299.822C85.5563 258.458 83.5781 206.025 94.2689 160.835C99.6104 138.256 108.098 117.589 116.658 101.207C124.532 86.138 132.385 74.8538 137.8 69.0483L259.826 152.059L263.607 154.631L263.731 150.06C265.594 81.4631 308.954 37.9627 369.552 4.04998L433.547 159.602L433.803 160.224L434.336 160.633L516.47 223.749L517.065 343.513L517.07 344.449L517.687 345.152L615.515 456.432L531.652 513.149C526.504 511.074 520.833 508.713 514.724 506.169C494.482 497.742 469.421 487.309 442.597 478.632C407.024 467.127 368.003 458.586 332.44 461.88L329.74 462.13L330.208 464.801C332.268 476.557 335.511 487.443 341.818 495.121C347.912 502.539 356.649 506.711 369.048 506.212L371.454 521.171L371.792 523.274H373.922H396.805L403.868 548.273L404.357 550.006L406.156 550.091L432.239 551.317L436.031 577.419L436.566 581.102L439.773 579.214L485.957 552.026L541.976 552.686C540.466 555.097 539.004 557.506 537.551 559.899C531.951 569.122 526.496 578.108 519.042 585.984C508.83 596.775 494.93 605.32 471.983 608.254L471.982 608.254C436.97 612.75 411.437 597.932 385.533 582.898C379.626 579.47 373.701 576.031 367.639 572.807L366.982 572.458L366.241 572.525L343.511 574.569L342.752 574.638L342.16 575.118Z" fill="url(#paint0_linear_6_78)" stroke="#FBB901" style="stroke:#FBB901;stroke:color(display-p3 0.9843 0.7255 0.0039);stroke-opacity:1;" stroke-width="5"/>
<path d="M441.632 352.552C440.853 353.148 439.747 353.911 438.295 354.795C435.746 356.348 432.314 358.165 428.148 359.959C419.814 363.549 408.623 367.015 395.789 368.131C370.697 370.311 339.146 363.536 310.089 330.628C326.146 317.002 351.158 308.34 376.038 310.021C401.257 311.724 426.238 324.034 441.632 352.552Z" fill="#930D30" stroke="#FBB901" style="fill:#930D30;fill:color(display-p3 0.5765 0.0510 0.1882);fill-opacity:1;stroke:#FBB901;stroke:color(display-p3 0.9843 0.7255 0.0039);stroke-opacity:1;" stroke-width="5"/>
<defs>
<linearGradient id="paint0_linear_6_78" x1="287.498" y1="289.856" x2="784.714" y2="120.557" gradientUnits="userSpaceOnUse">
<stop stop-color="#121212" style="stop-color:#121212;stop-color:color(display-p3 0.0706 0.0706 0.0706);stop-opacity:1;"/>
<stop offset="1" stop-color="#2A2929" style="stop-color:#2A2929;stop-color:color(display-p3 0.1666 0.1590 0.1590);stop-opacity:1;"/>
</linearGradient>
</defs>
</svg>
